<?xml version="1.0" encoding="UTF-8"?>
<svg width="1567px" height="712px" viewBox="0 0 1567 712" version="1.1" xmlns="http://www.w3.org/2000/svg" xmlns:xlink="http://www.w3.org/1999/xlink">
    <!-- Generator: Sketch 62 (91390) - https://sketch.com -->
    <title>Group 9</title>
    <desc>Created with Sketch.</desc>
    <g id="Page-1" stroke="none" stroke-width="1" fill="none" fill-rule="evenodd">
        <g id="Group-9">
            <rect id="Rectangle" stroke="#979797" fill="#000000" x="492.5" y="163.5" width="463" height="263"></rect>
            <g id="Group-6" transform="translate(492.000000, 536.000000)">
                <rect id="Rectangle" stroke="#979797" fill="#000000" x="0.5" y="0.5" width="463" height="175"></rect>
                <rect id="Rectangle" stroke="#979797" fill="#FFFFFF" x="22.5" y="23.5" width="192" height="121"></rect>
                <rect id="Rectangle" stroke="#979797" fill="#FFFFFF" x="248.5" y="23.5" width="192" height="121"></rect>
                <text id="Yaml-+-Markdown" font-family="HelveticaNeue, Helvetica Neue" font-size="24" font-weight="normal" fill="#000000">
                    <tspan x="95.984" y="69">Yaml</tspan>
                    <tspan x="114.8" y="97">+</tspan>
                    <tspan x="65.108" y="125">Markdown</tspan>
                </text>
                <text id="Git" font-family="HelveticaNeue, Helvetica Neue" font-size="24" font-weight="normal" fill="#000000">
                    <tspan x="329.448" y="97">Git</tspan>
                </text>
            </g>
            <g id="Group-5" transform="translate(1102.000000, 536.000000)">
                <rect id="Rectangle" stroke="#979797" fill="#000000" x="0.5" y="0.5" width="463" height="175"></rect>
                <rect id="Rectangle" stroke="#979797" fill="#FFFFFF" x="102.5" y="53.5" width="259" height="68"></rect>
                <text id="MeiliSearch" font-family="HelveticaNeue, Helvetica Neue" font-size="32" font-weight="normal" fill="#000000">
                    <tspan x="158" y="99">MeiliSearch</tspan>
                </text>
            </g>
            <g id="Group-2" transform="translate(1102.000000, 163.000000)">
                <g id="Group-4">
                    <rect id="Rectangle" stroke="#979797" fill="#000000" x="0.5" y="0.5" width="463" height="263"></rect>
                    <rect id="Rectangle" stroke="#979797" fill="#FFFFFF" x="16.5" y="21.5" width="203" height="61"></rect>
                    <rect id="Rectangle" stroke="#979797" fill="#FFFFFF" x="245.5" y="21.5" width="203" height="61"></rect>
                    <rect id="Rectangle" stroke="#979797" fill="#FFFFFF" x="16.5" y="181.5" width="203" height="61"></rect>
                    <rect id="Rectangle" stroke="#979797" fill="#FFFFFF" x="245.5" y="181.5" width="203" height="61"></rect>
                    <rect id="Rectangle" stroke="#979797" fill="#CC5757" x="16.5" y="101.5" width="203" height="61"></rect>
                    <rect id="Rectangle" stroke="#979797" fill="#CC5757" x="245.5" y="101.5" width="203" height="61"></rect>
                    <rect id="Rectangle" stroke="#979797" fill="#FFFFFF" x="16.5" y="101.5" width="203" height="61"></rect>
                    <rect id="Rectangle" stroke="#979797" fill="#FFFFFF" x="245.5" y="101.5" width="203" height="61"></rect>
                    <text id="Editor" font-family="HelveticaNeue, Helvetica Neue" font-size="24" font-weight="normal" fill="#000000">
                        <tspan x="315" y="141">Editor</tspan>
                    </text>
                    <text id="…" font-family="HelveticaNeue, Helvetica Neue" font-size="24" font-weight="normal" fill="#000000">
                        <tspan x="336" y="221">…</tspan>
                    </text>
                    <text id="Render" font-family="HelveticaNeue, Helvetica Neue" font-size="24" font-weight="normal" fill="#000000">
                        <tspan x="79" y="141">Render</tspan>
                    </text>
                    <text id="QuakeGraph" font-family="HelveticaNeue, Helvetica Neue" font-size="24" font-weight="normal" fill="#000000">
                        <tspan x="50" y="221">QuakeGraph</tspan>
                    </text>
                </g>
                <g id="Group" transform="translate(16.000000, 101.000000)"></g>
                <text id="Dashboard" font-family="HelveticaNeue, Helvetica Neue" font-size="24" font-weight="normal" fill="#000000">
                    <tspan x="59" y="61">Dashboard</tspan>
                </text>
                <text id="QuakeSearch" font-family="HelveticaNeue, Helvetica Neue" font-size="24" font-weight="normal" fill="#000000">
                    <tspan x="275" y="61">QuakeSearch</tspan>
                </text>
            </g>
            <g id="Group-7" transform="translate(0.000000, 163.000000)">
                <rect id="Rectangle" stroke="#979797" fill="#000000" x="0.5" y="0.5" width="345" height="263"></rect>
                <rect id="Rectangle" stroke="#979797" fill="#FFFFFF" x="60.5" y="23.5" width="226" height="59"></rect>
                <rect id="Rectangle" stroke="#979797" fill="#FFFFFF" x="58.5" y="99.5" width="226" height="59"></rect>
                <rect id="Rectangle" stroke="#979797" fill="#FFFFFF" x="60.5" y="175.5" width="226" height="59"></rect>
                <text id="Microsoft-To-do" font-family="HelveticaNeue, Helvetica Neue" font-size="24" font-weight="normal" fill="#000000">
                    <tspan x="89" y="63">Microsoft To do</tspan>
                </text>
                <text id="Apple-Notes" font-family="HelveticaNeue, Helvetica Neue" font-size="24" font-weight="normal" fill="#000000">
                    <tspan x="106" y="138">Apple Notes</tspan>
                </text>
                <text id="…" font-family="HelveticaNeue, Helvetica Neue" font-size="24" font-weight="normal" fill="#000000">
                    <tspan x="161" y="214">…</tspan>
                </text>
            </g>
            <rect id="Rectangle" stroke="#979797" fill="#FFFFFF" x="514.5" y="191.5" width="192" height="68"></rect>
            <g id="Group-3" transform="translate(514.000000, 0.000000)">
                <rect id="Rectangle" stroke="#979797" fill="#FFFFFF" x="0.5" y="0.5" width="192" height="68"></rect>
                <text id="Terminal" font-family="HelveticaNeue, Helvetica Neue" font-size="32" font-weight="normal" fill="#000000">
                    <tspan x="37" y="46">Terminal</tspan>
                </text>
            </g>
            <rect id="Rectangle" stroke="#979797" fill="#FFFFFF" x="740.5" y="191.5" width="192" height="68"></rect>
            <rect id="Rectangle" stroke="#979797" fill="#FFFFFF" x="514.5" y="295.5" width="418" height="102"></rect>
            <text id="Action" font-family="HelveticaNeue, Helvetica Neue" font-size="32" font-weight="normal" fill="#000000">
                <tspan x="671" y="358">Action</tspan>
            </text>
            <text id="CLI-API" font-family="HelveticaNeue, Helvetica Neue" font-size="32" font-weight="normal" fill="#000000">
                <tspan x="557" y="237">CLI API</tspan>
            </text>
            <text id="importer" font-family="HelveticaNeue, Helvetica Neue" font-size="32" font-weight="normal" fill="#000000">
                <tspan x="224" y="135">importer</tspan>
            </text>
            <text id="HTTP-API" font-family="HelveticaNeue, Helvetica Neue" font-size="32" font-weight="normal" fill="#000000">
                <tspan x="767" y="237">HTTP API</tspan>
            </text>
            <g id="Group-8" transform="translate(1335.000000, 69.000000)" fill="#000000" font-family="HelveticaNeue, Helvetica Neue" font-weight="normal">
                <text id="Web-Application" font-size="32">
                    <tspan x="0" y="30">Web Application</tspan>
                </text>
                <text id="Web-Components" font-size="24">
                    <tspan x="37" y="70">Web Components</tspan>
                </text>
            </g>
            <text id="SearchEngine" font-family="HelveticaNeue, Helvetica Neue" font-size="32" font-weight="normal" fill="#000000">
                <tspan x="1359" y="486">SearchEngine</tspan>
            </text>
            <text id="Storage" font-family="HelveticaNeue, Helvetica Neue" font-size="32" font-weight="normal" fill="#000000">
                <tspan x="843" y="493">Storage</tspan>
            </text>
            <text id="CRUD" font-family="HelveticaNeue, Helvetica Neue" font-size="24" font-weight="normal" fill="#000000">
                <tspan x="631" y="486">CRUD</tspan>
            </text>
            <text id="query" font-family="HelveticaNeue, Helvetica Neue" font-size="24" font-weight="normal" fill="#000000">
                <tspan x="1256" y="482">query</tspan>
            </text>
            <text id="feed" font-family="HelveticaNeue, Helvetica Neue" font-size="24" font-weight="normal" fill="#000000">
                <tspan x="1009" y="677">feed</tspan>
            </text>
            <text id="Application" font-family="HelveticaNeue, Helvetica Neue" font-size="32" font-weight="normal" fill="#000000">
                <tspan x="795" y="135">Application</tspan>
            </text>
            <path id="Line" d="M613,80 L613,144.613 L620.506849,131.269478 L621.487371,129.526326 L624.973674,131.487371 L623.993151,133.230522 L612.743151,153.230522 L611,156.329458 L609.256849,153.230522 L598.006849,133.230522 L597.026326,131.487371 L600.512629,129.526326 L601.493151,131.269478 L609,144.614 L609,80 L613,80 Z" fill="#979797" fill-rule="nonzero"></path>
            <path id="Line" d="M726,445 L726,509.613 L733.506849,496.269478 L734.487371,494.526326 L737.973674,496.487371 L736.993151,498.230522 L725.743151,518.230522 L724,521.329458 L722.256849,518.230522 L711.006849,498.230522 L710.026326,496.487371 L713.512629,494.526326 L714.493151,496.269478 L722,509.614 L722,445 L726,445 Z" fill="#979797" fill-rule="nonzero"></path>
            <path id="Line" d="M1336,445 L1336,509.613 L1343.50685,496.269478 L1344.48737,494.526326 L1347.97367,496.487371 L1346.99315,498.230522 L1335.74315,518.230522 L1334,521.329458 L1332.25685,518.230522 L1321.00685,498.230522 L1320.02633,496.487371 L1323.51263,494.526326 L1324.49315,496.269478 L1332,509.614 L1332,445 L1336,445 Z" fill="#979797" fill-rule="nonzero"></path>
            <path id="Line-2" d="M441.987371,278.526326 L443.730522,279.506849 L463.730522,290.756849 L466.829458,292.5 L463.730522,294.243151 L443.730522,305.493151 L441.987371,306.473674 L440.026326,302.987371 L441.769478,302.006849 L455.113,294.5 L398.886,294.5 L412.230522,302.006849 L413.973674,302.987371 L412.012629,306.473674 L410.269478,305.493151 L390.269478,294.243151 L387.170542,292.5 L390.269478,290.756849 L410.269478,279.506849 L412.012629,278.526326 L413.973674,282.012629 L412.230522,282.993151 L398.885,290.5 L455.114,290.5 L441.769478,282.993151 L440.026326,282.012629 L441.987371,278.526326 Z" fill="#979797" fill-rule="nonzero"></path>
            <path id="Line-2" d="M1048.48737,281.026326 L1050.23052,282.006849 L1070.23052,293.256849 L1073.32946,295 L1070.23052,296.743151 L1050.23052,307.993151 L1048.48737,308.973674 L1046.52633,305.487371 L1048.26948,304.506849 L1061.613,297 L1005.386,297 L1018.73052,304.506849 L1020.47367,305.487371 L1018.51263,308.973674 L1016.76948,307.993151 L996.769478,296.743151 L993.670542,295 L996.769478,293.256849 L1016.76948,282.006849 L1018.51263,281.026326 L1020.47367,284.512629 L1018.73052,285.493151 L1005.385,293 L1061.614,293 L1048.26948,285.493151 L1046.52633,284.512629 L1048.48737,281.026326 Z" fill="#979797" fill-rule="nonzero"></path>
            <path id="Line-2" d="M1048.48737,604.026326 L1050.23052,605.006849 L1070.23052,616.256849 L1073.32946,618 L1070.23052,619.743151 L1050.23052,630.993151 L1048.48737,631.973674 L1046.52633,628.487371 L1048.26948,627.506849 L1061.612,620 L997,620 L997,616 L1061.615,616 L1048.26948,608.493151 L1046.52633,607.512629 L1048.48737,604.026326 Z" fill="#979797" fill-rule="nonzero"></path>
        </g>
    </g>
</svg>